<?xml version="1.0" encoding="UTF-8" standalone="no"?>
<svg width="297mm" height="210mm" viewBox="0 0 297 210" version="1.1" id="svg5" xmlns="http://www.w3.org/2000/svg" xmlns:svg="http://www.w3.org/2000/svg">
<g id="checkers">
<rect width="25" height="25" x="11" y="5"></rect>
<rect width="25" height="25" x="61" y="5"></rect>
<rect width="25" height="25" x="111" y="5"></rect>
<rect width="25" height="25" x="161" y="5"></rect>
<rect width="25" height="25" x="211" y="5"></rect>
<rect width="25" height="25" x="261" y="5"></rect>
<rect width="25" height="25" x="36" y="30"></rect>
<rect width="25" height="25" x="86" y="30"></rect>
<rect width="25" height="25" x="136" y="30"></rect>
<rect width="25" height="25" x="186" y="30"></rect>
<rect width="25" height="25" x="236" y="30"></rect>
<rect width="25" height="25" x="11" y="55"></rect>
<rect width="25" height="25" x="61" y="55"></rect>
<rect width="25" height="25" x="111" y="55"></rect>
<rect width="25" height="25" x="161" y="55"></rect>
<rect width="25" height="25" x="211" y="55"></rect>
<rect width="25" height="25" x="261" y="55"></rect>
<rect width="25" height="25" x="36" y="80"></rect>
<rect width="25" height="25" x="86" y="80"></rect>
<rect width="25" height="25" x="136" y="80"></rect>
<rect width="25" height="25" x="186" y="80"></rect>
<rect width="25" height="25" x="236" y="80"></rect>
<rect width="25" height="25" x="11" y="105"></rect>
<rect width="25" height="25" x="61" y="105"></rect>
<rect width="25" height="25" x="111" y="105"></rect>
<rect width="25" height="25" x="161" y="105"></rect>
<rect width="25" height="25" x="211" y="105"></rect>
<rect width="25" height="25" x="261" y="105"></rect>
<rect width="25" height="25" x="36" y="130"></rect>
<rect width="25" height="25" x="86" y="130"></rect>
<rect width="25" height="25" x="136" y="130"></rect>
<rect width="25" height="25" x="186" y="130"></rect>
<rect width="25" height="25" x="236" y="130"></rect>
<rect width="25" height="25" x="11" y="155"></rect>
<rect width="25" height="25" x="61" y="155"></rect>
<rect width="25" height="25" x="111" y="155"></rect>
<rect width="25" height="25" x="161" y="155"></rect>
<rect width="25" height="25" x="211" y="155"></rect>
<rect width="25" height="25" x="261" y="155"></rect>
<rect width="25" height="25" x="36" y="180"></rect>
<rect width="25" height="25" x="86" y="180"></rect>
<rect width="25" height="25" x="136" y="180"></rect>
<rect width="25" height="25" x="186" y="180"></rect>
<rect width="25" height="25" x="236" y="180"></rect>

</g>
</svg>
